<svg height='100px' width='100px'  fill="#f6f6f6" xmlns="http://www.w3.org/2000/svg" xmlns:xlink="http://www.w3.org/1999/xlink" version="1.1" x="0px" y="0px" viewBox="0 0 100 100" enable-background="new 0 0 100 100" xml:space="preserve"><path d="M62.397,23.657c-3.29,0-5.969,2.677-5.969,5.969c0,2.347,1.365,4.376,3.339,5.35l-5.251,14.905l-12.012-8.859l-7.671,20.367  c-0.014,0-0.027-0.002-0.041-0.002c-3.291,0-5.969,2.678-5.969,5.969c0,3.29,2.677,5.969,5.969,5.969  c3.291,0,5.969-2.678,5.969-5.969c0-2.376-1.399-4.425-3.413-5.385l6.358-16.883l12.075,8.904l6.484-18.405  c0.044,0.001,0.088,0.007,0.132,0.007c3.29,0,5.969-2.677,5.969-5.969S65.687,23.657,62.397,23.657z M34.792,69.914  c-1.41,0-2.558-1.148-2.558-2.558c0-1.41,1.148-2.558,2.558-2.558s2.558,1.148,2.558,2.558S36.203,69.914,34.792,69.914z   M62.397,32.184c-1.41,0-2.558-1.148-2.558-2.558s1.148-2.558,2.558-2.558s2.558,1.148,2.558,2.558  C64.955,31.036,63.807,32.184,62.397,32.184z M63.572,14.923l-0.771,0.289c-13.259,4.972-19.791,17.1-20.647,18.787  c-6.083,2.661-14.998-0.402-14.998-0.402l-1.019,0.373c-13.961,5.236-20.47,18.415-20.74,18.973L5,53.762l31.315,31.315l0.794-1.587  c6.079-12.157,17.585-17.019,19.145-17.631c8.559,2.706,16.726,0.46,16.726,0.46l0.794-1.587C80.269,51.739,95,46.351,95,46.351  L63.572,14.923z M72.309,62.03L59.252,49.077L58.4,51.741l12.31,12.311c-6.466,1.954-14.007-0.574-14.007-0.574L43.608,50.279  l-0.929,2.688l11.074,11.177c-3.776,1.747-12.513,6.653-18.107,16.645L8.122,53.266c1.568-2.798,7.511-12.279,18.15-16.602  l11.611,11.721l0.746-2.771l-8.527-8.633c5.542,1.386,10.978,0.587,12.969-0.57l10.692,10.696l0.853-2.665l-9.829-9.933  c1.568-2.798,7.511-12.279,18.151-16.602l27.48,27.48C86.641,47.133,77.904,52.038,72.309,62.03z"></path></svg>